# xmcd
#
# Track frame offsets:
#	150
#	10978
#	23641
#	37868
#	51317
#	61661
#	71736
#	81931
#	93422
#	104033
#	115175
#	125980
#
# Disc length: 1856 seconds
#
# Revision: 0
# Processed by: cddbd v1.5.1PL2 Copyright (c) Steve Scherf et al.
# Submitted via: dBpowerAMP V4.0
#
DISCID=a1073e0c
DTITLE=Waylon Jennings - Jewels
DYEAR=1968
DGENRE=Country
TTITLE0=Track01New York City, R.F.D.
TTITLE1=Today I Started Loving You Again
TTITLE2=Folsom Prison Blues
TTITLE3=If You Were Mine to Lose
TTITLE4=See You Around
TTITLE5=Six Strings Away
TTITLE6=Yours Love
TTITLE7=How Much Rain Can One Man Stand
TTITLE8=Mental Revenge
TTITLE9=I'm doing This for You
TTITLE10=You Love the Ground I Walk On
TTITLE11=My Romona
EXTD=
EXTT0=
EXTT1=
EXTT2=
EXTT3=
EXTT4=
EXTT5=
EXTT6=
EXTT7=
EXTT8=
EXTT9=
EXTT10=
EXTT11=
PLAYORDER=
